<svg width="50" height="50" viewBox="0 0 50 50" fill="none" xmlns="http://www.w3.org/2000/svg">
<path d="M50 25.5625C50 23.9167 49.851 22.3542 49.5955 20.8334H25.5427V30.2292H39.3146C38.6973 33.3126 36.888 35.9167 34.206 37.6876V43.9376H42.4223C47.2328 39.5834 50 33.1667 50 25.5625Z" fill="#A356FF"/>
<path d="M25.5431 50C32.4396 50 38.2081 47.75 42.4226 43.9375L34.2063 37.6875C31.9075 39.1875 28.9914 40.1042 25.5431 40.1042C18.8806 40.1042 13.2399 35.7083 11.2178 29.7708H2.74609V36.2083C6.93937 44.375 15.5601 50 25.5431 50Z" fill="#AE91D1"/>
<path d="M11.2176 29.7709C10.6854 28.2709 10.4087 26.6667 10.4087 25C10.4087 23.3334 10.7067 21.7292 11.2176 20.2292V13.7917H2.74585C1.00043 17.1667 0 20.9584 0 25C0 29.0417 1.00043 32.8334 2.74585 36.2084L11.2176 29.7709Z" fill="#A356FF"/>
<path d="M25.5431 9.89584C29.3106 9.89584 32.6738 11.1667 35.3345 13.6459L42.6142 6.52084C38.2081 2.47917 32.4396 0 25.5431 0C15.5601 0 6.93937 5.62501 2.74609 13.7917L11.2178 20.2292C13.2399 14.2917 18.8806 9.89584 25.5431 9.89584Z" fill="#AE91D1"/>
</svg>
