<svg width="50" height="50" viewBox="0 0 50 50" fill="none" xmlns="http://www.w3.org/2000/svg">
<g clip-path="url(#clip0)">
<path d="M25 50.0034C38.8071 50.0034 50 38.8106 50 25.0035C50 11.1964 38.8071 0.00354004 25 0.00354004C11.1929 0.00354004 0 11.1964 0 25.0035C0 38.8106 11.1929 50.0034 25 50.0034Z" fill="#A356FF"/>
<path d="M34.7314 32.2317L35.8388 25.0034H28.9059V20.3135C28.9059 18.3377 29.8727 16.4076 32.9806 16.4076H36.1341V10.2552C36.1341 10.2552 33.2724 9.76648 30.5372 9.76648C24.8277 9.76648 21.0941 13.2259 21.0941 19.4944V25.0034H14.7448V32.2317H21.0941V49.7011C22.3667 49.9015 23.6711 50.0034 25 50.0034C26.3289 50.0034 27.6332 49.898 28.9059 49.7011V32.2317H34.7314Z" fill="white"/>
</g>
<defs>
<clipPath id="clip0">
<rect width="50" height="50" fill="white"/>
</clipPath>
</defs>
</svg>
